HIERARCHY
ROOT Hips
{
	OFFSET 0.00000 0.00000 0.00000
	CHANNELS 6 Xposition Yposition Zposition Yrotation Zrotation Xrotation 
	JOINT Lumbar
	{
		OFFSET 0 0 0
		CHANNELS 3 Zrotation Xrotation Yrotation
		JOINT Neck
		{
			OFFSET 0.00 0.2701 0.00
			CHANNELS 3 Zrotation Xrotation Yrotation
			End Site
			{
				OFFSET 0.00 0.1379 0.00
			}
		}
		JOINT RightShoulder
		{
			OFFSET 0.0119 0.2289 0.1181
			CHANNELS 3 Zrotation Xrotation Yrotation
			JOINT RightElbow
			{
				OFFSET 0.00 -0.1475 0.00
				CHANNELS 2 Zrotation Yrotation
				JOINT RightWrist
				{
					OFFSET 0.00 -0.1605 0.00
					CHANNELS 2 Zrotation Xrotation
					End Site
					{
						OFFSET 0.0040 -0.1068 0.0006
					}
				}
			}
		}
		JOINT LeftShoulder
		{
			OFFSET 0.0119 0.2289 -0.1181
			CHANNELS 3 Zrotation Xrotation Yrotation
			JOINT LeftElbow
			{
				OFFSET 0.00 -0.1475 0.00
				CHANNELS 2 Zrotation Yrotation
				JOINT LeftWrist
				{
					OFFSET 0.00 -0.1605 0.00
					CHANNELS 2 Zrotation Xrotation
					End Site
					{
						OFFSET 0.0040 -0.1068 -0.0006
					}
				}
			}
		}
	}
	JOINT RightHip
	{
		OFFSET 0.0316 -0.0424 0.0458
		CHANNELS 3 Zrotation Xrotation Yrotation
		JOINT RightKnee
		{
			OFFSET 0.00 -0.2438 0.00
			CHANNELS 1 Zrotation
			JOINT RightAnkle
			{
				OFFSET 0.00 -0.2449 0.00
				CHANNELS 3 Zrotation Xrotation Yrotation
				End Site
				{
					OFFSET 0.1237 -0.0542 0.0051
				}
			}
		}
	}
	JOINT LeftHip
	{
		OFFSET 0.0316 -0.0424 -0.0458
		CHANNELS 3 Zrotation Xrotation Yrotation
		JOINT LeftKnee
		{
			OFFSET 0.00 -0.2438 0.00
			CHANNELS 1 Zrotation
			JOINT LeftAnkle
			{
				OFFSET 0.00 -0.2449 0.00
				CHANNELS 3 Zrotation Xrotation Yrotation
				End Site
				{
					OFFSET 0.1237 -0.0542 -0.0051
				}
			}
		}
	}
}
MOTION
Frames: 28
Frame Time: 0.02
-0.00053 5e-05 -0.00061 165.97041 -31.84599 -3.03394 46.14728 2.92373 -5.29759 -14.50488 -11.23584 -1.42768 -28.72529 -10.73643 -4.3428 41.98507 90.18678 6.68741 0.45991 -36.43418 11.00093 6.97536 35.16559 -93.24393 12.07285 -0.08063 32.25664 -0.4799 -12.16786 -20.51729 -7.43674 -2.70275 -3.55904 33.14953 9.33372 6.33851 -26.40164 -8.73996 3.85917 4.20476
-0.00051 6e-05 -8e-05 166.33532 -31.84694 -2.98221 46.13854 2.89414 -5.31667 -14.31835 -11.18043 -1.42855 -28.71041 -10.78015 -4.01558 42.04099 90.22162 6.74817 0.45247 -35.61199 11.07248 6.33264 35.76724 -93.13683 12.08156 -0.04974 32.2229 -0.54943 -12.27822 -20.5195 -7.44109 -2.71076 -3.56631 33.22037 9.31883 6.44248 -26.41677 -8.696 3.82605 4.18712
-0.0005 7e-05 0.00045 166.69932 -31.84813 -2.93062 46.13003 2.86465 -5.33562 -14.13224 -11.12508 -1.42943 -28.69556 -10.82389 -3.6891 42.09695 90.25633 6.80879 0.44504 -34.79181 11.14391 5.69131 36.36834 -93.02977 12.09016 -0.01888 32.1896 -0.61878 -12.38802 -20.52178 -7.44546 -2.71879 -3.57358 33.29137 9.30391 6.54603 -26.43194 -8.65216 3.79303 4.16953
-0.00049 8e-05 0.00097 167.06314 -31.84914 -2.87905 46.12137 2.83516 -5.35463 -13.94625 -11.06982 -1.43031 -28.68073 -10.8675 -3.36284 42.15275 90.29106 6.86938 0.43763 -33.97206 11.21526 5.05047 36.96836 -92.92296 12.09883 0.01192 32.15605 -0.68811 -12.49798 -20.524 -7.44981 -2.72679 -3.58083 33.36208 9.28905 6.64965 -26.44704 -8.60834 3.76002 4.15194
-0.00048 9e-05 0.0015 167.42777 -31.84976 -2.82734 46.11234 2.80556 -5.37381 -13.7599 -11.01454 -1.43118 -28.66589 -10.91102 -3.03594 42.20842 90.32595 6.93008 0.43022 -33.15053 11.28671 4.40849 37.56841 -92.81621 12.10764 0.04272 32.12188 -0.75761 -12.60866 -20.5261 -7.45413 -2.73475 -3.58807 33.43242 9.27425 6.75375 -26.46207 -8.56442 3.72692 4.13431
-0.00046 0.0001 0.00203 167.79042 -31.85212 -2.77603 46.10489 2.77629 -5.39226 -13.5743 -10.95902 -1.43206 -28.65099 -10.95524 -2.71039 42.26496 90.36028 6.99054 0.42273 -32.33323 11.35809 3.76856 38.17166 -92.70851 12.11577 0.0737 32.09037 -0.82663 -12.71663 -20.52874 -7.45858 -2.7429 -3.59538 33.50477 9.2591 6.85618 -26.47752 -8.52076 3.69405 4.11681
-0.00045 0.00011 0.00256 168.15665 -31.85113 -2.72396 46.09441 2.7464 -5.41216 -13.38741 -10.90408 -1.43293 -28.63626 -10.99799 -2.38245 42.31972 90.39566 7.05142 0.41542 -31.50828 11.4295 3.12521 38.76787 -92.60285 12.12527 0.10428 32.05371 -0.89653 -12.82976 -20.53034 -7.46278 -2.75069 -3.60256 33.57318 9.24465 6.96173 -26.49214 -8.47662 3.66076 4.09906
-0.00044 0.00012 0.00309 168.51958 -31.85298 -2.6726 46.08649 2.71707 -5.43072 -13.2017 -10.84856 -1.43381 -28.62132 -11.0421 -2.05677 42.37606 90.43012 7.11191 0.40794 -30.69048 11.50094 2.485 39.37046 -92.49531 12.13352 0.13523 32.02148 -0.96567 -12.93845 -20.53282 -7.4672 -2.75878 -3.60984 33.64491 9.2296 7.06464 -26.50747 -8.43291 3.62785 4.08153
-0.00042 0.00013 0.00362 168.87869 -31.8593 -2.62207 46.08267 2.68847 -5.44766 -13.01737 -10.79246 -1.43469 -28.60629 -11.08792 -1.73347 42.43468 90.4633 7.17196 0.40026 -29.8806 11.57225 1.84831 39.98177 -92.38536 12.14018 0.16665 31.99597 -1.0337 -13.04045 -20.53671 -7.47195 -2.76738 -3.61731 33.72204 9.2136 7.16341 -26.5239 -8.38977 3.59545 4.0643
-0.00043 0.00013 0.00414 169.26045 -31.84292 -2.56664 46.05815 2.65582 -5.47398 -12.82487 -10.74007 -1.43555 -28.59231 -11.12405 -1.39531 42.48123 90.5034 7.23467 0.39375 -29.02263 11.64382 1.1904 40.54572 -92.28892 12.15578 0.19545 31.93576 -1.10758 -13.17716 -20.5335 -7.47496 -2.77348 -3.62389 33.77211 9.20242 7.28326 -26.53472 -8.34347 3.56024 4.04547
-0.00038 0.00015 0.00468 169.59394 -31.87248 -2.52161 46.07545 2.63161 -5.48047 -12.64982 -10.67964 -1.43645 -28.57578 -11.18052 -1.0893 42.55253 90.52918 7.29168 0.38477 -28.26788 11.71515 0.57795 41.20762 -92.16425 12.15266 0.22969 31.94619 -1.16944 -13.24304 -20.54461 -7.48154 -2.78457 -3.63222 33.87667 9.18147 7.36038 -26.55687 -8.30376 3.53087 4.02995
-0.00021 0.00018 0.00525 169.79749 -32.04601 -2.50479 46.22462 2.63155 -5.43218 -12.52111 -10.59858 -1.43741 -28.55496 -11.29416 -0.86569 42.69824 90.51282 7.33356 0.36874 -27.78445 11.78334 0.08524 42.15646 -91.95758 12.09566 0.28005 32.17433 -1.19539 -13.09231 -20.60091 -7.49908 -2.81177 -3.64659 34.15436 9.12998 7.30449 -26.6146 -8.28282 3.51831 4.02409
0 0.00023 0.00585 169.95201 -32.26276 -2.49844 46.41304 2.63977 -5.36402 -12.41021 -10.50925 -1.4384 -28.53111 -11.42795 -0.67547 42.86759 90.48254 7.36959 0.35028 -27.40699 11.85185 -0.36101 43.19948 -91.7225 12.0197 0.33587 32.46952 -1.20981 -12.87417 -20.67063 -7.52003 -2.84356 -3.66253 34.48287 9.06928 7.20846 -26.68294 -8.26836 3.51148 4.02147
0.0002 0.00027 0.00643 170.12744 -32.44753 -2.48752 46.57182 2.64355 -5.30519 -12.29214 -10.42264 -1.43939 -28.50686 -11.55166 -0.47372 43.02187 90.46059 7.40804 0.33307 -26.98865 11.92171 -0.82516 44.18864 -91.50449 11.95486 0.38812 32.71777 -1.2314 -12.7019 -20.73018 -7.53866 -2.87162 -3.67695 34.77208 9.01532 7.14125 -26.74337 -8.25045 3.50152 4.01699
0.00041 0.00031 0.00702 170.30893 -32.6828 -2.4759 46.77882 2.65021 -5.24511 -12.17018 -10.34005 -1.44032 -28.49001 -11.67939 -0.25648 43.19447 90.43048 7.44768 0.31516 -26.53924 11.98488 -1.30242 45.22812 -91.27253 11.88202 0.44406 33.03348 -1.24479 -12.46685 -20.80638 -7.56047 -2.90649 -3.6947 35.12778 8.95086 7.02987 -26.8165 -8.23464 3.49377 4.01411
0.00059 0.00035 0.0076 170.46574 -32.82526 -2.46815 46.89678 2.65282 -5.18288 -12.06057 -10.24755 -1.44139 -28.45715 -11.80341 -0.07963 43.33449 90.41365 7.4832 0.29823 -26.18035 12.06255 -1.74184 46.18077 -91.05831 11.81809 0.49476 33.22734 -1.27255 -12.34448 -20.85177 -7.57656 -2.92843 -3.70596 35.35955 8.90567 7.00027 -26.86615 -8.21607 3.4828 4.0087
0.0007 0.00037 0.00815 170.57087 -32.68169 -2.469 46.74025 2.64231 -5.12013 -11.98043 -10.12601 -1.44286 -28.37982 -11.91303 -0.00463 43.37915 90.4406 7.5111 0.28371 -26.03951 12.175 -2.08183 46.90647 -90.94752 11.8147 0.51806 33.04331 -1.3428 -12.56769 -20.80271 -7.5753 -2.91222 -3.69822 35.21399 8.91954 7.21245 -26.84412 -8.1876 3.46123 3.99514
0.00079 0.00039 0.0087 170.65238 -32.4463 -2.47324 46.49576 2.62739 -5.05595 -11.91217 -9.99545 -1.44448 -28.28684 -12.01807 0.03045 43.39023 90.48081 7.53469 0.27043 -25.98724 12.3023 -2.38504 47.53424 -90.85234 11.81748 0.53691 32.73835 -1.42792 -12.90305 -20.72314 -7.56832 -2.88314 -3.68404 34.94562 8.95232 7.50704 -26.79876 -8.15625 3.43628 3.97899
0.00088 0.00041 0.00925 170.7414 -32.26612 -2.47568 46.30466 2.61449 -4.9919 -11.8386 -9.87143 -1.44599 -28.20143 -12.12471 0.08297 43.41635 90.51239 7.55866 0.25719 -25.8982 12.42708 -2.71107 48.18399 -90.71173 11.7939 0.56687 32.50596 -1.50623 -13.17568 -20.66174 -7.56437 -2.86077 -3.67325 34.74902 8.97423 7.76009 -26.76702 -8.12666 3.41306 3.96427
0.00099 0.00043 0.00978 170.84101 -32.03257 -2.47982 46.06047 2.60196 -4.9288 -11.76514 -9.73682 -1.44761 -28.11321 -12.2341 0.13783 43.44391 90.55405 7.58883 0.24132 -25.79789 12.53687 -3.01577 48.93443 -90.70886 11.85933 0.56343 32.20416 -1.58433 -13.49669 -20.58337 -7.55858 -2.83473 -3.66047 34.48905 9.00592 8.02964 -26.72339 -8.09538 3.3892 3.9486
0.00107 0.00045 0.01035 170.91523 -31.88529 -2.48078 45.90272 2.5873 -4.86435 -11.6942 -9.62225 -1.44911 -28.02812 -12.33636 0.17807 43.46058 90.5786 7.60545 0.23126 -25.74108 12.67786 -3.34919 49.44776 -90.45219 11.75334 0.62246 32.01405 -1.66659 -13.7431 -20.53202 -7.55542 -2.81349 -3.65041 34.32845 9.02121 8.28411 -26.69825 -8.06688 3.3658 3.93425
0.00107 0.00049 0.01104 170.91127 -32.02067 -2.47492 46.02883 2.56976 -4.7903 -11.62579 -9.56506 -1.44976 -27.94756 -12.4204 0.19368 43.45148 90.54796 7.5831 0.23682 -25.77936 12.93248 -3.83748 49.35484 -89.2312 11.06408 0.90838 32.19088 -1.75673 -13.76982 -20.57062 -7.55906 -2.8061 -3.64823 34.4968 8.99223 8.48432 -26.73514 -8.04633 3.34429 3.92418
0.00105 0.00053 0.01178 170.88542 -32.24221 -2.46526 46.2407 2.54989 -4.71602 -11.55963 -9.52833 -1.45037 -27.87223 -12.49717 0.19486 43.43298 90.50056 7.54778 0.24821 -25.85861 13.21269 -4.34477 49.02196 -87.79502 10.22008 1.2489 32.47913 -1.85085 -13.71672 -20.63608 -7.56582 -2.80431 -3.64917 34.76513 8.94518 8.66569 -26.79053 -8.02867 3.32331 3.9155
0.00104 0.00056 0.01251 170.8789 -32.40906 -2.45538 46.39711 2.52967 -4.64622 -11.49343 -9.48248 -1.45135 -27.79971 -12.57706 0.19907 43.42148 90.46403 7.52011 0.25706 -25.92057 13.46008 -4.79871 48.78197 -86.63779 9.52112 1.52748 32.69638 -1.94285 -13.6898 -20.68382 -7.57246 -2.80179 -3.64955 34.97063 8.90264 8.85047 -26.83381 -8.00999 3.30223 3.9062
0.00102 0.00059 0.01316 170.83189 -32.63634 -2.45356 46.61858 2.51495 -4.55859 -11.42377 -9.4359 -1.45092 -27.70461 -12.65793 0.21732 43.39814 90.41433 7.48482 0.26555 -25.97942 13.79527 -5.43603 48.6055 -84.74856 8.51661 1.95628 32.99313 -2.03565 -13.70385 -20.75315 -7.57367 -2.79172 -3.64633 35.24294 8.87599 9.05826 -26.89143 -7.99016 3.2806 3.89685
0.00101 0.00064 0.01399 170.86439 -32.76189 -2.43437 46.72791 2.48865 -4.50718 -11.36136 -9.39539 -1.45334 -27.65814 -12.73465 0.20274 43.39663 90.38776 7.46244 0.27607 -26.05414 13.95622 -5.70154 48.2427 -84.29219 8.09951 2.0932 33.1552 -2.12885 -13.61905 -20.78509 -7.58667 -2.79818 -3.6511 35.40441 8.81221 9.21455 -26.92448 -7.9732 3.26007 3.88786
0.00102 0.00075 0.01531 171.12143 -32.56368 -2.36515 46.49025 2.42767 -4.56329 -11.32111 -9.37013 -1.46422 -27.74322 -12.80542 0.10741 43.46615 90.43051 7.47848 0.29151 -26.15527 13.60601 -4.89104 47.41036 -88.20191 9.44945 1.34062 32.89303 -2.21051 -13.21932 -20.7 -7.63471 -2.8552 -3.68034 35.2094 8.64547 9.21503 -26.8799 -7.9656 3.2444 3.88069
0.00103 0.00088 0.01681 171.45941 -32.26418 -2.27918 46.13974 2.35572 -4.65431 -11.28746 -9.34954 -1.4779 -27.87719 -12.87149 -0.0212 43.55624 90.49676 7.50804 0.30863 -26.27202 13.08397 -3.71401 46.40234 -93.50061 11.37748 0.30439 32.49626 -2.29426 -12.73244 -20.57768 -7.69403 -2.92771 -3.71703 34.90434 8.44262 9.16656 -26.81094 -7.96045 3.22953 3.87369
